<svg width="50" height="50" viewBox="0 0 50 50" fill="none" xmlns="http://www.w3.org/2000/svg">
    <rect width="50" height="50" rx="25" fill="#0496FF" />
    <path
        d="M17.537 10.6576C15.8112 11.5286 14.5132 12.5897 13.5269 13.9364C13.2555 14.3067 12.7301 15.2407 12.5601 15.6575C12.1535 16.6551 11.9432 17.8026 11.9528 18.9872C11.9542 19.4072 12.0229 20.1541 12.0877 20.5391C12.1116 20.6755 12.1169 20.9283 12.1009 21.1712C12.0328 22.2449 12.1082 22.9835 12.3674 23.6903C12.7812 24.8335 13.6096 25.3665 14.8834 25.3062C15.2204 25.2907 15.4426 25.2533 16.1303 25.0944C16.4208 25.0253 16.6603 24.9725 16.667 24.9724C16.6738 24.9722 16.6418 25.1052 16.5993 25.2616C16.2785 26.4371 16.2653 27.6802 16.5584 28.9397C16.7784 29.8748 17.1747 30.8165 17.8361 31.9658C18.7338 33.5277 19.2862 34.6447 19.6443 35.6406C20.1814 37.1384 20.3013 38.0699 20.0583 38.884C20.0035 39.0674 20.0401 39.2337 20.1454 39.2894C20.2632 39.3506 20.425 39.3471 20.5806 39.281C20.9669 39.1171 21.174 38.6194 21.1536 37.8981C21.1297 37.0724 20.8838 36.1727 20.3207 34.846C19.9049 33.8665 19.4609 33.0047 18.7383 31.7592C18.1704 30.7819 17.8134 29.9809 17.5873 29.1678C17.1882 27.7389 17.184 26.3106 17.5705 24.9851C17.6073 24.8555 17.6423 24.7456 17.6442 24.7421C17.6452 24.7363 17.7836 24.6938 17.9499 24.6449C18.6009 24.4554 18.8466 24.305 18.8127 24.1131C18.7998 24.0345 18.5134 23.6323 18.2914 23.3738C18.274 23.3568 18.3129 23.2642 18.3817 23.1537L18.5 22.9596L18.7305 23.0219C19.2832 23.1699 19.9159 23.1619 20.4889 22.9973C20.6139 22.9632 20.6217 22.9654 20.6288 23.0302C20.672 23.5247 20.9346 24.3278 21.2531 24.9497C21.6883 25.7988 22.1359 26.4446 23.0192 27.4998C24.0538 28.735 24.4608 29.3573 24.8756 30.3345C25.2329 31.1842 25.3829 31.8261 25.3939 32.5813C25.4008 33.1265 25.3385 33.5166 25.1613 34.0287C25.0495 34.3584 24.9256 35.1002 24.9126 35.5264C24.9011 35.8759 24.9625 36.5174 25.0335 36.821C25.1134 37.1616 25.4071 37.8374 25.5819 38.0808C26.0429 38.7182 26.6408 39.1971 27.3784 39.5163C27.6748 39.6455 29.2007 40.2352 29.3328 40.2741C29.3753 40.2859 29.2313 40.2032 29.0101 40.0909C28.5968 39.8783 28.2478 39.6573 28.2195 39.5907C28.2098 39.5677 28.2364 39.5102 28.2805 39.4617C28.3732 39.3517 28.3889 39.2284 28.318 39.1255C28.287 39.0844 28.1487 38.983 28.0076 38.8991C27.8637 38.8164 27.7129 38.7257 27.6685 38.7011C27.6259 38.673 27.4818 38.566 27.3483 38.4598C26.4631 37.7447 25.9963 36.7732 25.9305 35.5203C25.895 34.8516 26.0059 34.0311 26.1995 33.5174C26.4054 32.9769 26.4579 32.211 26.3458 31.45C26.2638 30.9203 26.1499 30.5318 25.8942 29.9293C25.4862 28.9601 25.0101 28.2232 24.1279 27.1866C22.6272 25.4302 21.9024 24.1314 21.6704 22.7916L21.6226 22.5106L21.829 22.3878C22.4836 21.9986 22.9439 21.4803 23.0157 21.0483L23.0408 20.8911L23.2494 20.9898C25.2087 21.9274 26.3861 23.5632 26.568 25.5945C26.5814 25.7544 26.5885 25.9874 26.5854 26.1082C26.5715 26.5483 26.633 27.2141 26.7311 27.7017C26.8767 28.4214 27.234 29.2711 27.6037 29.7735C27.8832 30.1515 28.2076 30.467 28.5944 30.737C29.0478 31.052 29.3771 31.1944 30.2472 31.4492C31.2784 31.755 31.7459 31.9908 32.3411 32.5115C32.8231 32.9338 33.1822 33.4191 33.4844 34.0669C33.8577 34.8664 34.0544 35.7625 34.0301 36.5788C34.0164 37.0432 34.0214 37.0791 34.0873 37.1461C34.1696 37.2278 34.3778 37.2697 34.5163 37.2353C34.7615 37.1719 34.8578 36.9981 34.932 36.4917C34.9932 36.0587 34.9978 35.6931 34.946 35.2104C34.7324 33.2007 33.6568 31.6844 31.9579 30.9917C31.8334 30.9388 31.4484 30.8172 31.1031 30.7169C30.4163 30.5172 30.2946 30.4712 29.9547 30.2953C29.3249 29.9656 28.7652 29.4325 28.3493 28.7651C28.1821 28.4996 27.8776 27.7822 27.7881 27.443C27.6247 26.8257 27.5381 26.157 27.5425 25.5662C27.5492 24.5403 27.3339 23.5924 26.9203 22.8182C26.529 22.0806 26.0734 21.5522 25.3362 20.9696L25.2492 20.9007L25.3367 20.8826C25.8051 20.776 26.2328 20.6297 26.469 20.4969C26.7935 20.3157 27.11 20.0837 27.3984 19.8175C27.4176 19.7985 27.4341 19.8294 27.451 19.9254C27.4938 20.1623 27.8128 20.8898 27.9671 21.1011C28.5165 21.8584 29.2882 22.2581 30.3953 22.358C31.04 22.4182 31.3774 22.4758 31.7565 22.5916C32.6508 22.8633 33.3732 23.3952 33.9005 24.1645C34.3958 24.8905 34.763 25.9802 34.8595 27.0329C34.8791 27.2552 34.897 27.7062 34.894 28.0358C34.8896 29.4678 35.0762 30.1077 35.6709 30.7074C36.0961 31.132 36.6012 31.3925 37.4954 31.6398C38.3702 31.8817 38.695 31.9257 38.9902 31.8357C39.2315 31.7631 39.4111 31.4969 39.3359 31.3199C39.2881 31.2072 39.1587 31.1508 38.7991 31.081C37.2671 30.7896 36.2997 30.1772 35.9063 29.2506C35.6916 28.7447 35.6384 28.363 35.6375 27.343C35.6374 26.6375 35.5989 26.1301 35.5145 25.6829C35.1316 23.699 34.1034 22.3905 32.5443 21.899C32.168 21.782 31.8142 21.7178 31.2457 21.6687C30.7957 21.6263 30.2952 21.5131 30.0027 21.3849C29.6146 21.2159 29.2053 20.8768 28.9761 20.5372C28.8469 20.345 28.6234 19.8185 28.5701 19.5806C28.5188 19.3636 28.4571 18.8416 28.4802 18.8318C28.4888 18.8282 28.5891 18.848 28.7019 18.8734C28.9893 18.9414 29.1685 18.9548 29.5305 18.9423C30.1631 18.918 30.8987 18.7116 31.569 18.3674C32.0203 18.1324 32.1681 18.0317 32.4305 17.7764C32.8941 17.3219 33.0747 16.7296 32.9715 16.0217C32.9215 15.6956 32.5947 14.9497 32.354 14.6231C31.8648 13.9515 31.3499 13.4835 30.7093 13.1204L30.433 12.9664L30.1912 12.6212C28.8271 10.6576 26.8019 9.49283 24.3892 9.28225C22.7993 9.14301 21.1826 9.36523 19.2263 9.9894C18.8398 10.1127 17.803 10.523 17.537 10.6576Z"
        fill="black" />
</svg>